<svg xmlns="http://www.w3.org/2000/svg" width="139.465" height="18.269" viewBox="0 0 139.465 18.269">
  <path id="Path_61" data-name="Path 61" d="M17.75,21.92V4h4.418V21.92Zm85.867-6.7c0-4.331-3.636-7.019-7.892-7.019-4.282,0-7.892,2.713-7.892,7.019,0,4.33,3.636,7.044,7.892,7.044S103.616,19.531,103.616,15.225Zm-4.363,0a3.555,3.555,0,0,1-7.11,0,3.556,3.556,0,0,1,7.11,0ZM15.972,16.768a4.331,4.331,0,0,0-3.152-4.256c1.912-.971,2.586-2.24,2.586-3.734,0-2.613-2.047-4.779-6.626-4.754H0v17.92H9.158C13.763,21.92,15.972,19.8,15.972,16.768ZM10.72,9.3c0,1.22-.835,1.916-2.451,1.916H4.606V7.484H8.269C9.75,7.484,10.72,8.082,10.72,9.3Zm.4,7.193c0,1.17-.889,1.941-2.532,1.941H4.606V14.553H8.592C10.181,14.553,11.124,15.3,11.124,16.494Zm43.311-4.63c-1.213-2.339-3.475-3.634-6.9-3.634-4.04,0-7.649,2.34-7.649,6.994,0,4.53,3.178,7.044,7.6,7.044,3.1,0,5.71-1.145,6.949-3.609l-3.556-1.693a3.472,3.472,0,0,1-3.232,1.792,3.214,3.214,0,0,1-3.367-3.534,3.285,3.285,0,0,1,3.34-3.509A3.325,3.325,0,0,1,50.8,13.607Zm65.1,0c-1.212-2.339-3.474-3.634-6.895-3.634-4.04,0-7.65,2.34-7.65,6.994,0,4.53,3.178,7.044,7.6,7.044,3.1,0,5.71-1.145,6.949-3.609l-3.555-1.693a3.472,3.472,0,0,1-3.232,1.792,3.213,3.213,0,0,1-3.367-3.534,3.285,3.285,0,0,1,3.34-3.509,3.325,3.325,0,0,1,3.178,1.891ZM82.5,21.92,78.81,15.9H75.982V21.92H71.43V4h8.215c4.444,0,7.541,1.966,7.541,5.824A5.565,5.565,0,0,1,83.523,15.1l4.256,6.82Zm-6.491-9.582H79.4c2.1,0,3.124-1.1,3.124-2.39,0-1.543-.97-2.389-3.124-2.389H76.008ZM39.162,21.7V18.884a3.012,3.012,0,0,1-.754.1c-.566,0-.862-.274-.862-.747V13.582c0-3.484-2.532-5.326-6.707-5.326a10.374,10.374,0,0,0-6.491,2.116L26.8,12.91a5.7,5.7,0,0,1,3.529-1.294c1.939,0,2.855.9,2.855,2.364V14.4a16,16,0,0,0-3.475-.4c-3.528,0-5.818,1.568-5.818,4.156,0,2.663,1.912,4.057,4.876,4.057a6.774,6.774,0,0,0,4.767-1.767,2.973,2.973,0,0,0,3.017,1.668A6.767,6.767,0,0,0,39.162,21.7ZM33.21,17.49c0,1.22-1.266,2.016-2.72,2.016-1.374,0-2.047-.648-2.047-1.543,0-.946.754-1.643,2.289-1.643a11.7,11.7,0,0,1,2.478.3Zm102.108,4.43-5.2-8.338,4.875-4.9h-4.9l-5.145,5.277V4.025h-4.39v17.92h4.39V18.709l2.1-2.066,3.286,5.3h4.983Zm-65.047,0-5.2-8.338,4.876-4.9H64.992L59.9,13.955V4.025h-4.39v17.92H59.9V18.709L62,16.644l3.286,5.3h4.983Zm67.739-2.489a1.325,1.325,0,1,1-1.453,1.319A1.291,1.291,0,0,1,138.011,19.431Zm0,2.464a1.084,1.084,0,0,0,1.213-1.145,1.1,1.1,0,0,0-1.213-1.145,1.084,1.084,0,0,0-1.211,1.145C136.771,21.522,137.284,21.9,138.011,21.9Zm-.566-1.817h.594c.35,0,.538.174.538.423a.416.416,0,0,1-.3.423l.269.473h-.269l-.242-.423h-.323V21.4h-.27Zm.27.2v.473h.3c.189,0,.3-.05.3-.224,0-.149-.081-.224-.269-.224h-.323Z" transform="translate(0 -4)"/>
</svg>
