<svg xmlns="http://www.w3.org/2000/svg" width="135.48" height="24.597" viewBox="0 0 135.48 24.597">
  <g id="Group_111" data-name="Group 111" transform="translate(-3027.892 -4458.331)">
    <g id="Group_110" data-name="Group 110">
      <path id="Path_78" data-name="Path 78" d="M346.385,18.148H329V1.016h17.385Zm-16.062-1.329c2.231-.026,4.419-.042,6.6-.079a9.283,9.283,0,0,0,3.154-.581,5.254,5.254,0,0,0,3.145-2.736,3.1,3.1,0,0,0-.005-2.861,3.154,3.154,0,0,0-1.811-1.4c-.266-.094-.536-.162-.877-.267l.16-.052a16.964,16.964,0,0,0,1.726-.539A3.574,3.574,0,0,0,344.8,5.28a2.325,2.325,0,0,0-1.508-2.506,6.632,6.632,0,0,0-2.358-.413c-1.9-.021-3.809-.005-5.71-.005a1.39,1.39,0,0,0-.293.016.227.227,0,0,0-.144.115c-.053.173-.085.351-.126.549.126.016.265.026.4.052a5.473,5.473,0,0,1,.717.157.535.535,0,0,1,.435.622,2.409,2.409,0,0,1-.1.586c-.33,1.067-.669,2.129-1.01,3.191-.61,1.92-1.221,3.845-1.847,5.76-.192.591-.41,1.177-.654,1.753a1.291,1.291,0,0,1-1.03.805l-1.016.173C330.483,16.349,330.407,16.558,330.323,16.819Z" transform="translate(2698.892 4457.336)" fill="#0b3b62"/>
      <path id="Path_79" data-name="Path 79" d="M385.369,12.1c.265-.021.5-.031.739-.063a.523.523,0,0,0,.526-.518,5.8,5.8,0,0,0,.043-.727c0-1.292,0-2.579-.016-3.871a4.013,4.013,0,0,0-.17-1.025A1.21,1.21,0,0,0,385.268,5,2.321,2.321,0,0,0,384,5.27a1.558,1.558,0,0,0-.776,1.449c-.016,1.517,0,3.034,0,4.551a1.359,1.359,0,0,0,.057.387.442.442,0,0,0,.426.366c.185.011.371.047.552.042.238-.011.323.089.291.309a.342.342,0,0,0,0,.1c.027.214-.091.277-.281.267-.51-.031-1.026-.078-1.536-.078-.865,0-1.732.037-2.6.058-.027,0-.053.005-.08.005-.4.037-.574-.183-.419-.549.021-.057.132-.1.206-.1.256-.026.51-.026.765-.052a.443.443,0,0,0,.435-.413,6.254,6.254,0,0,0,.064-.832c0-1.7-.005-3.4-.005-5.1V5.548c-.032-.581-.218-.743-.808-.754-.206-.005-.419-.057-.626-.042a.858.858,0,0,0-.723.508,16.163,16.163,0,0,0-.67,1.6c-.542,1.569-1.062,3.149-1.593,4.724-.1.293-.192.591-.282.889a.271.271,0,0,1-.318.225,7.428,7.428,0,0,0-1.133.005c-.27.026-.361-.1-.425-.314-.212-.685-.43-1.37-.638-2.056-.393-1.282-.78-2.564-1.174-3.845-.016-.047-.037-.094-.075-.183-.228.685-.446,1.329-.664,1.977-.457,1.371-.924,2.736-1.37,4.112-.08.235-.186.335-.446.314-.335-.026-.67-.011-1.01-.006-.286,0-.371-.057-.457-.329-.286-.931-.568-1.867-.86-2.8-.4-1.271-.808-2.542-1.217-3.814a3.421,3.421,0,0,0-.16-.382,1.007,1.007,0,0,0-.914-.643c-.355-.021-.494-.257-.35-.591.027-.068.186-.11.282-.11.6.005,1.2.047,1.8.042.8,0,1.609-.032,2.41-.052.282-.005.319.021.319.3v.351c-.218.026-.419.047-.616.078-.4.063-.616.293-.552.685a13.5,13.5,0,0,0,.366,1.507c.367,1.271.749,2.537,1.142,3.866.122-.382.234-.706.341-1.041q.868-2.73,1.726-5.466a.29.29,0,0,1,.334-.241c.4.016.8.021,1.2,0,.213-.011.282.068.341.256.626,2.15,1.263,4.295,1.9,6.445,0,.005.011.011.053.047.059-.209.112-.4.165-.591.419-1.564.85-3.123,1.264-4.687a.571.571,0,0,0-.5-.78c-.106-.021-.213-.026-.314-.052s-.281-.047-.286-.1a1.383,1.383,0,0,1,.011-.513c.005-.037.174-.058.265-.058.776.011,1.557.032,2.332.042.176,0,.357-.031.532-.021.3.016.6.073.908.068.749-.016,1.5-.068,2.252-.094.341-.016.345-.005.345.324v.706a1.257,1.257,0,0,0,.17-.115,3.907,3.907,0,0,1,3.182-1.035,3.663,3.663,0,0,1,.945.2,1.812,1.812,0,0,1,1.248,1.71c.053.8.053,1.6.059,2.4.011.952,0,1.9.005,2.851a2.655,2.655,0,0,0,.059.544.468.468,0,0,0,.441.414c.256.016.51.042.765.042.164,0,.228.063.213.214a.309.309,0,0,0,0,.078c0,.382-.039.387-.431.377q-1.505-.047-3.023-.052c-.371-.005-.744.037-1.11.052-.323.016-.361-.016-.361-.345A1.4,1.4,0,0,1,385.369,12.1Z" transform="translate(2710.851 4458.288)" fill="#040404"/>
      <path id="Path_80" data-name="Path 80" d="M345.537,1.66V1.147c0-.157.117-.147.229-.147.435.011.865.026,1.3.026,1.249.005,2.492,0,3.74.005.855.005,1.721-.047,2.565.037a2.5,2.5,0,0,1,2.5,2.631,2.774,2.774,0,0,1-.833,2.27,3.888,3.888,0,0,1-1.657.827c-.186.052-.373.089-.586.136.5.1.973.173,1.44.293a2.523,2.523,0,0,1,2,2.521,4.839,4.839,0,0,1-.133,1.632,2.92,2.92,0,0,1-2.035,2.019,7.165,7.165,0,0,1-2.4.3c-.865-.01-1.732-.062-2.6-.062-1.067,0-2.136.036-3.2.062-.286.005-.318-.021-.323-.293,0-.063,0-.12-.005-.183-.016-.178.069-.246.249-.246a4.659,4.659,0,0,0,.659-.047c.5-.073.669-.241.707-.748.032-.4.059-.8.064-1.2q.008-3.649,0-7.292a9.852,9.852,0,0,0-.059-1.12c-.085-.711-.192-.727-.845-.837C346.078,1.7,345.839,1.686,345.537,1.66Zm4.053,11.158a8.736,8.736,0,0,0,2.156,0,1.933,1.933,0,0,0,1.769-1.449,4.911,4.911,0,0,0,.027-2.375,1.9,1.9,0,0,0-1.6-1.5,7.9,7.9,0,0,0-2.353-.057Zm-.016-6.183a6.336,6.336,0,0,0,2.444-.215,1.787,1.787,0,0,0,1.19-1.287,4.337,4.337,0,0,0,.059-1.831,1.651,1.651,0,0,0-1.435-1.454,10.9,10.9,0,0,0-2.263,0C349.574,3.448,349.574,5.034,349.574,6.634Z" transform="translate(2704.363 4457.331)" fill="#040404"/>
      <path id="Path_81" data-name="Path 81" d="M393.326,3.993c.612,0,1.206.005,1.8,0,1.142-.016,2.284-.052,3.419-.047a2.9,2.9,0,0,1,2.237.884,3.354,3.354,0,0,1,.8,1.674,8.947,8.947,0,0,1,.133,2.385,7.216,7.216,0,0,1-.334,1.836,2.779,2.779,0,0,1-2.694,1.967c-1.243.037-2.49-.026-3.733-.031-.632,0-1.27.037-1.9.042-.319,0-.638-.042-.95-.042-.547.005-1.1.031-1.642.047h-.276c-.011-.136-.021-.241-.032-.371.212-.031.409-.063.606-.084.393-.047.579-.283.451-.649-.286-.816-.6-1.627-.9-2.437-.027-.073-.053-.147-.085-.22a.777.777,0,0,0-.107-.011h-3.076c-.281.821-.595,1.643-.849,2.48-.17.56.063.837.658.889.122.011.245,0,.389,0v.376h-3.028v-.335a.233.233,0,0,1,.064-.031,1.247,1.247,0,0,0,1.163-.869c.419-1.015.87-2.019,1.3-3.034.526-1.256,1.041-2.516,1.556-3.772a3.8,3.8,0,0,0,.2-.534c.053-.209.18-.262.382-.262.675.005.616-.078.86.6.335.926.691,1.847,1.047,2.767.5,1.292,1.009,2.579,1.513,3.866.09.23.186.466.3.691a1.145,1.145,0,0,0,1.27.523c.5-.068.59-.157.632-.659.025-.277.043-.555.043-.832,0-1.71,0-3.416,0-5.126a5.284,5.284,0,0,0-.085-.905c-.053-.288-.186-.372-.479-.387l-.371-.016C393.284,4.359,393.247,4.312,393.326,3.993Zm2.348,8.208c.877,0,1.71.068,2.529-.016a2.036,2.036,0,0,0,1.977-1.721,15.721,15.721,0,0,0,.238-1.773,7.066,7.066,0,0,0-.244-2.6,2.076,2.076,0,0,0-1.531-1.564,8.028,8.028,0,0,0-1.545-.141c-.467-.005-.94.058-1.424.094Zm-5.609-3.725c-.478-1.172-.94-2.307-1.4-3.437l-.065.016c-.441,1.13-.881,2.26-1.338,3.421Z" transform="translate(2717.166 4458.273)" fill="#0b3b62"/>
      <path id="Path_82" data-name="Path 82" d="M346.4,15.837v2.59H329v-2.59Z" transform="translate(2698.892 4462.242)" fill="#0b3b62"/>
      <path id="Path_83" data-name="Path 83" d="M363.812,3.849c.526.1,1.121.178,1.694.346a2.854,2.854,0,0,1,1.987,1.9,7.1,7.1,0,0,1,.1,4.358,3.129,3.129,0,0,1-2.5,2.276,6.938,6.938,0,0,1-3.325-.021,3.125,3.125,0,0,1-2.38-2.4,7.813,7.813,0,0,1,.005-3.871,3.139,3.139,0,0,1,2.7-2.391C362.628,3.938,363.185,3.917,363.812,3.849Zm1.8,4.75c-.064-.853-.1-1.58-.18-2.307a1.893,1.893,0,0,0-.506-1.172,2.034,2.034,0,0,0-1.89-.486,1.424,1.424,0,0,0-1.153.769,3.03,3.03,0,0,0-.314,1.036c-.075.889-.106,1.789-.106,2.683a9.906,9.906,0,0,0,.154,1.528,1.768,1.768,0,0,0,.547,1.1,1.97,1.97,0,0,0,3.209-.994A21.614,21.614,0,0,0,365.608,8.6Z" transform="translate(2708.87 4458.274)" fill="#040404"/>
      <path id="Path_84" data-name="Path 84" d="M403.032,4.325V3.943H409.3c.005.1.011.22.016.366-.224.021-.436.052-.643.052-.309,0-.473.136-.526.5a5.115,5.115,0,0,0-.053.753c-.005,1.821-.005,3.646,0,5.467a7.568,7.568,0,0,0,.084.827c.028.22.181.3.383.329.234.026.473.047.728.073v.356h-3.532v-.351c.249-.021.483-.052.716-.063a.4.4,0,0,0,.415-.366,5.119,5.119,0,0,0,.069-.7c.005-1.894.005-3.782-.005-5.676a4.534,4.534,0,0,0-.091-.847.37.37,0,0,0-.414-.288c-.309,0-.616,0-.925-.005a.527.527,0,0,0-.5.319c-.234.481-.462.973-.659,1.47-.387.968-.765,1.946-1.137,2.924-.446,1.172-.882,2.349-1.328,3.526a1.384,1.384,0,0,1-.064.131c-.233,0-.467-.005-.705,0-.165.005-.208-.115-.245-.225-.133-.366-.25-.738-.382-1.1-.426-1.172-.851-2.344-1.291-3.51-.351-.931-.728-1.852-1.094-2.778a1.055,1.055,0,0,0-1.147-.806V3.928h.584c.892,0,1.785-.005,2.677-.005.128,0,.277-.058.3.151.021.188-.075.262-.25.283a3.452,3.452,0,0,0-.467.078c-.362.084-.51.308-.4.654.213.665.442,1.329.685,1.983.51,1.375,1.032,2.751,1.552,4.122a.739.739,0,0,0,.181.282c.132-.34.275-.68.4-1.025.536-1.527,1.073-3.055,1.6-4.582a3.42,3.42,0,0,0,.2-.853c.032-.382-.176-.591-.563-.649C403.32,4.351,403.176,4.341,403.032,4.325Z" transform="translate(2721.388 4458.296)" fill="#0b3b62"/>
      <path id="Path_85" data-name="Path 85" d="M353.616,4.158c.075-.01.117-.026.154-.026,1.009-.036,2.012-.068,3.021-.1.346-.011.373.021.378.366v.638c.174-.2.318-.392.488-.554a2.131,2.131,0,0,1,2.1-.534,1.426,1.426,0,0,1,1.073,1.282,2.648,2.648,0,0,1,.016.649c-.037.45-.213.617-.664.654a2.8,2.8,0,0,1-.558-.005c-.341-.031-.458-.162-.488-.5a3.523,3.523,0,0,0-.064-.518.694.694,0,0,0-1.1-.408,1.574,1.574,0,0,0-.642,1.151,11.307,11.307,0,0,0-.138,1.528c-.016,1.213,0,2.422.016,3.636.005.434.181.586.616.612.265.016.531.037.8.042.144,0,.213.057.213.2v.052c.005.418-.032.455-.462.424a29.083,29.083,0,0,0-4.426,0c-.3.026-.345-.016-.345-.324V12.1c.329-.021.627-.031.918-.068a.5.5,0,0,0,.516-.513c.027-.277.053-.555.053-.832,0-1.5,0-3,0-4.5,0-.272-.023-.539-.049-.805a.547.547,0,0,0-.595-.565c-.2-.016-.409-.005-.61-.005-.16,0-.25-.058-.234-.235A3.768,3.768,0,0,0,353.616,4.158Z" transform="translate(2707.035 4458.28)" fill="#040404"/>
      <path id="Path_86" data-name="Path 86" d="M421.016,8.259a7.947,7.947,0,0,1-.339,2.286,3.239,3.239,0,0,1-2.614,2.229,7.874,7.874,0,0,1-2.735.1,3.368,3.368,0,0,1-2.108-.957,3.442,3.442,0,0,1-.787-1.428,7.749,7.749,0,0,1-.112-3.882,3.31,3.31,0,0,1,2.772-2.683,7.108,7.108,0,0,1,3.427.084,3.174,3.174,0,0,1,2.353,2.715C420.93,7.239,420.968,7.751,421.016,8.259Zm-1.343.078c.02,0,.036-.005.059-.005-.069-.612-.1-1.229-.213-1.831a2.522,2.522,0,0,0-1.5-2.009,3.834,3.834,0,0,0-1.991-.241A2.592,2.592,0,0,0,413.7,6.276a7.479,7.479,0,0,0-.25,2.5,7.133,7.133,0,0,0,.314,1.972,2.368,2.368,0,0,0,1.529,1.569,3.87,3.87,0,0,0,2.055.115,2.463,2.463,0,0,0,2.014-1.732A6.854,6.854,0,0,0,419.673,8.337Z" transform="translate(2726.405 4458.244)" fill="#0b3b62"/>
      <path id="Path_87" data-name="Path 87" d="M422.365,12.284v.377h-3.516v-.346c.222-.026.441-.057.657-.073.3-.016.469-.141.49-.554.031-.575.048-1.146.048-1.721.005-1.386.009-2.772,0-4.159-.005-.361-.053-.722-.09-1.088-.027-.257-.208-.34-.441-.356l-.675-.047V3.925h.457c1.014,0,2.034-.005,3.049.011a20.3,20.3,0,0,1,2.034.094,1.444,1.444,0,0,1,1.328,1.313,4.16,4.16,0,0,1,.021,1.031,2.02,2.02,0,0,1-1.694,1.606c-.16.031-.319.068-.515.11.292.445.563.848.828,1.251q.693,1.028,1.392,2.056a5.074,5.074,0,0,0,.446.549,1.183,1.183,0,0,0,.908.351v.392c-.2-.011-.387-.026-.579-.026-.382,0-.759.005-1.135.021a.273.273,0,0,1-.277-.141q-1.14-1.766-2.3-3.521c-.192-.293-.393-.607-.771-.664a5.93,5.93,0,0,0-.87-.011v.314c.016.983.027,1.967.048,2.95,0,.361.121.559.345.6a4.765,4.765,0,0,0,.552.063A1.33,1.33,0,0,0,422.365,12.284ZM421.186,7.9a6.523,6.523,0,0,0,2.353-.2,1.394,1.394,0,0,0,.764-.685,2.241,2.241,0,0,0,.106-1.747,1.178,1.178,0,0,0-.956-.837,10.928,10.928,0,0,0-2.268-.031Z" transform="translate(2728.626 4458.299)" fill="#0b3b62"/>
      <path id="Path_88" data-name="Path 88" d="M412.7,4.221V6.339h-.685c-.027-.23-.048-.46-.075-.69-.011-.1-.037-.2-.053-.309a1.175,1.175,0,0,0-1.067-1.057,2.661,2.661,0,0,0-1.753.167,1.418,1.418,0,0,0-.856,1.36,1.365,1.365,0,0,0,.835,1.339c.542.235,1.1.424,1.662.638a6.122,6.122,0,0,1,1.636.821,2.233,2.233,0,0,1,.563,2.658,2.618,2.618,0,0,1-2.092,1.564,6.617,6.617,0,0,1-3.825-.414.278.278,0,0,1-.208-.308c.028-.617.039-1.235.059-1.852,0-.058.043-.168.069-.168a5.008,5.008,0,0,1,.627.005c.032.005.064.121.075.189.059.413.1.827.176,1.235a.974.974,0,0,0,.6.722,2.988,2.988,0,0,0,2.831-.157,1.662,1.662,0,0,0-.17-2.893c-.627-.287-1.291-.5-1.933-.743a3.008,3.008,0,0,1-1.573-1.036,2.224,2.224,0,0,1,1.408-3.484A6.558,6.558,0,0,1,412.7,4.221Z" transform="translate(2724.635 4458.249)" fill="#0b3b62"/>
      <path id="Path_89" data-name="Path 89" d="M428.014,3.939v.34a6.533,6.533,0,0,0-.733.194c-.323.126-.419.34-.256.643.256.476.543.931.824,1.392.382.622.771,1.245,1.158,1.862.021.037.053.063.1.126.265-.466.52-.91.771-1.35q.5-.887.993-1.773a3.112,3.112,0,0,0,.176-.351.438.438,0,0,0-.4-.654c-.148-.021-.3-.037-.457-.057V3.944h2.74c.064.356.053.319-.254.429a1.635,1.635,0,0,0-.664.44,14.555,14.555,0,0,0-.93,1.329c-.552.863-1.089,1.742-1.641,2.61a1.159,1.159,0,0,0-.2.659c.016.654,0,1.308.005,1.962a2.758,2.758,0,0,0,.063.513.4.4,0,0,0,.4.345c.281.026.558.047.865.078.005.115.011.235.016.351h-3.866v-.351c.3-.026.6-.052.9-.083s.383-.115.415-.382.053-.518.059-.78c.011-.549-.012-1.1.011-1.648a1.425,1.425,0,0,0-.25-.884c-.835-1.235-1.668-2.469-2.513-3.7a1.152,1.152,0,0,0-.807-.481c-.335-.047-.351-.073-.277-.424C425.507,3.939,426.755,3.939,428.014,3.939Z" transform="translate(2730.408 4458.3)" fill="#0b3b62"/>
      <path id="Path_90" data-name="Path 90" d="M347.935,13.862l-1.185.062a.591.591,0,0,0-.543.392c-.084.2-.153.4-.238.623h-.3c.037-.539.08-1.073.117-1.643.085.021.192.01.234.057a.656.656,0,0,0,.536.162c1.354-.005,2.708,0,4.063-.005a2.586,2.586,0,0,0,.446-.052c.048-.011.122-.058.122-.083-.021-.251.181-.23.329-.278s.266-.079.426-.125V15.9c.165-.12.291-.22.424-.3a1.608,1.608,0,0,1,1.174-.283,1.212,1.212,0,0,1,1,1.287c.027.591.005,1.188.005,1.779,0,.554.069.633.627.7.005.084.011.168.011.272H353.21V19.1c.02-.016.032-.031.047-.031.484-.063.548-.131.548-.617v-1.6a1.571,1.571,0,0,0-.032-.309c-.122-.628-.563-.8-1.2-.633a1.575,1.575,0,0,0-.511.309.311.311,0,0,0-.11.22c0,.69-.011,1.375.016,2.066.021.481.069.507.579.57a1.305,1.305,0,0,1,.021.141c0,.042-.011.084-.016.136h-1.982V19.1c.016-.011.027-.026.043-.026.52-.052.59-.121.59-.623V13.935h-2.46v.215c0,1.349.005,2.7,0,4.054-.005.8.133.774.749.858l.16.016v.283h-2.609c-.005-.089-.011-.173-.016-.272.154-.021.3-.047.446-.068.293-.042.4-.141.441-.429a1.852,1.852,0,0,0,.023-.262Z" transform="translate(2704.41 4461.293)" fill="#040404"/>
      <path id="Path_91" data-name="Path 91" d="M402.19,18.872a5.62,5.62,0,0,1-.584-.523c-.181-.215-.117-.356.122-.5a6.128,6.128,0,0,0,.531-.387,4.2,4.2,0,0,1-.52-.5,1.353,1.353,0,0,1,.313-1.857,1.7,1.7,0,0,1,1.694-.272,2.012,2.012,0,0,0,.961.079c.2-.021.4-.047.6-.068.041.366-.272.565-.792.523a3.428,3.428,0,0,1,.18.675,1.408,1.408,0,0,1-1.428,1.507c-.176.011-.355-.005-.531-.005a.375.375,0,0,0-.387.314.285.285,0,0,0,.281.319c.361.031.723.021,1.083.037a3.733,3.733,0,0,1,.808.089,1.025,1.025,0,0,1,.558,1.532,2.479,2.479,0,0,1-3.156.989,1.472,1.472,0,0,1-.276-.2.793.793,0,0,1,.021-1.329C401.849,19.139,402.035,19,402.19,18.872Zm2.369.706a.594.594,0,0,0-.462-.617,2.6,2.6,0,0,0-1.387-.037,1.05,1.05,0,0,0-.659.759.779.779,0,0,0,.531.737,1.719,1.719,0,0,0,1.525-.062A.852.852,0,0,0,404.559,19.579Zm-.638-3.395a1.211,1.211,0,0,0-.351-.947.674.674,0,0,0-.966.011,1.4,1.4,0,0,0,.085,1.81.663.663,0,0,0,.945-.031A1.115,1.115,0,0,0,403.921,16.184Z" transform="translate(2722.821 4461.869)" fill="#040404"/>
      <path id="Path_92" data-name="Path 92" d="M364.223,14.839c-.218.5-.329.56-.9.529.043.094.085.173.122.256a1.4,1.4,0,0,1-1.3,1.92c-.185.005-.371,0-.558,0s-.409.146-.409.319a.3.3,0,0,0,.3.308c.35.026.7.021,1.051.042a4.816,4.816,0,0,1,.732.068A.967.967,0,0,1,364,19.62a1.913,1.913,0,0,1-1.29,1.245,2.171,2.171,0,0,1-2-.094,1.5,1.5,0,0,1-.488-.555.618.618,0,0,1,.148-.784c.218-.2.447-.387.67-.581-.174-.136-.345-.262-.5-.4a.8.8,0,0,1-.149-.241c-.09-.162-.041-.251.128-.345a6.443,6.443,0,0,0,.643-.44,1.285,1.285,0,0,1-.8-1.365,1.478,1.478,0,0,1,1.226-1.3,1.552,1.552,0,0,1,1.01.057,1.922,1.922,0,0,0,1.03.073A5.29,5.29,0,0,0,364.223,14.839Zm-2.035,4.007a1.264,1.264,0,0,0-1.11.434.67.67,0,0,0,.117,1,1.668,1.668,0,0,0,1.875-.016.813.813,0,0,0,.313-.832.675.675,0,0,0-.595-.518A5.627,5.627,0,0,0,362.188,18.846Zm.606-2.652a4.815,4.815,0,0,0-.137-.6.8.8,0,0,0-.723-.554.7.7,0,0,0-.669.5,1.466,1.466,0,0,0,.08,1.282.718.718,0,0,0,1.348-.136C362.735,16.534,362.757,16.371,362.794,16.194Z" transform="translate(2709.198 4461.865)" fill="#040404"/>
      <path id="Path_93" data-name="Path 93" d="M364.722,15.842a9.461,9.461,0,0,1,1.046-.5,1.144,1.144,0,0,1,1.451.79,3.205,3.205,0,0,1,.106.743c.016.5.005,1.01.005,1.517,0,.565.031.6.6.691.007.079.011.162.017.262H366V19.08c.552-.11.595-.152.59-.7-.005-.591.005-1.187-.043-1.773-.053-.648-.552-.847-1.147-.716a1.283,1.283,0,0,0-.357.157.54.54,0,0,0-.313.544c.027.607.005,1.219.005,1.831,0,.518.059.581.59.654.005.079.011.162.016.267h-1.971v-.272l.138-.016c.4-.052.478-.136.483-.534V14.183c0-.539-.043-.581-.616-.633-.005-.078-.011-.157-.016-.241.462-.1.9-.209,1.371-.314C364.722,13.948,364.722,14.905,364.722,15.842Z" transform="translate(2710.265 4461.301)" fill="#040404"/>
      <path id="Path_94" data-name="Path 94" d="M382.478,14.733v.644c.24-.152.452-.282.659-.419a1.186,1.186,0,0,1,1.9,1.041c.016.628,0,1.256.011,1.883.005.513.048.549.574.622.005.084.011.167.016.267H383.71V18.5c.043-.005.08-.016.122-.021.345-.052.451-.126.457-.46.016-.659,0-1.324-.021-1.983s-.611-.9-1.2-.664c-.048.021-.1.047-.142.063a.648.648,0,0,0-.458.716c.037.565.005,1.13.011,1.7.005.528.059.581.584.643.005.078.011.162.021.267h-2c-.005-.083-.005-.167-.011-.241.027-.021.037-.037.053-.037.536-.047.59-.089.606-.607q.024-.981,0-1.961c-.011-.5-.037-.513-.536-.618-.007-.068-.011-.146-.011-.219C381.607,14.974,382.027,14.859,382.478,14.733Z" transform="translate(2716.126 4461.87)" fill="#040404"/>
      <path id="Path_95" data-name="Path 95" d="M397.549,18.776c-.005-.094-.011-.173-.016-.246.037-.021.048-.036.064-.042.547-.057.6-.115.6-.664V15.889c0-.408-.032-.434-.43-.554a.194.194,0,0,1-.116-.152.21.21,0,0,1,.132-.146c.378-.1.76-.194,1.153-.293v.648c.277-.173.515-.335.765-.486a1.15,1.15,0,0,1,1.774.759,2.646,2.646,0,0,1,.043.544c.005.56,0,1.114,0,1.674,0,.492.053.554.563.617v.288h-1.9V18.5c.069-.011.133-.016.2-.026.27-.052.361-.152.366-.424.005-.654.011-1.308-.005-1.962a.77.77,0,0,0-1.067-.753c-.069.021-.133.042-.2.068a.726.726,0,0,0-.552.811c.053.544.011,1.1.011,1.648,0,.523.053.581.595.643v.277C398.865,18.776,398.217,18.776,397.549,18.776Z" transform="translate(2721.575 4461.872)" fill="#040404"/>
      <path id="Path_96" data-name="Path 96" d="M356.415,15.145V14.91c.435-.047.86-.094,1.312-.141v.554c0,.706-.011,1.413.005,2.113a.787.787,0,0,0,1.094.78,2.324,2.324,0,0,0,.409-.172.459.459,0,0,0,.261-.46c-.021-.607-.005-1.219-.005-1.831,0-.455-.005-.465-.469-.56-.068-.016-.137-.026-.222-.042-.005-.073-.005-.146-.011-.2.016-.021.021-.037.027-.037.462-.047.929-.094,1.428-.141V17.75c0,.424.08.5.511.5.053,0,.1.005.169.01v.257l-1.407.34v-.665c-.3.189-.542.356-.8.492a1.122,1.122,0,0,1-1.737-1.025c-.005-.56,0-1.114,0-1.674V15.83C356.973,15.3,356.951,15.27,356.415,15.145Z" transform="translate(2707.966 4461.888)" fill="#040404"/>
      <path id="Path_97" data-name="Path 97" d="M371.421,15.146v-.235c.435-.047.866-.094,1.318-.141v2.595a.83.83,0,0,0,1.211.832.684.684,0,0,0,.563-.8c-.005-.591-.005-1.182-.021-1.778-.005-.33-.037-.351-.382-.414-.1-.016-.192-.036-.3-.062-.005-.063-.011-.136-.016-.235.489-.047.966-.094,1.462-.147v1.962c0,.377-.011.748.009,1.125.021.34.1.4.447.4.069,0,.138.005.222.011v.262l-1.4.335c-.011-.2-.021-.408-.032-.654-.08.057-.138.1-.2.136a4.98,4.98,0,0,1-.844.471,1.1,1.1,0,0,1-1.467-1.1c-.011-.617-.005-1.24-.005-1.857C371.989,15.3,371.979,15.282,371.421,15.146Z" transform="translate(2712.932 4461.887)" fill="#040404"/>
      <path id="Path_98" data-name="Path 98" d="M355.23,14.717a1.973,1.973,0,0,1,1.971,2.061,2,2,0,0,1-2.046,2.108,1.969,1.969,0,0,1-2-2.019A2.077,2.077,0,0,1,355.23,14.717Zm1.115,2.27a2.829,2.829,0,0,0-.355-1.381.992.992,0,0,0-.957-.528.893.893,0,0,0-.791.6,2.49,2.49,0,0,0,.181,2.37.968.968,0,0,0,1.062.481.926.926,0,0,0,.728-.774C356.267,17.5,356.3,17.244,356.346,16.988Z" transform="translate(2706.886 4461.871)" fill="#040404"/>
      <path id="Path_99" data-name="Path 99" d="M369.9,15.4a2.347,2.347,0,0,1,.929-2.03,1.33,1.33,0,0,1,1.27-.324,1.014,1.014,0,0,1,.3.157.385.385,0,0,1-.075.649.407.407,0,0,1-.282-.058c-.133-.063-.244-.173-.382-.23a.576.576,0,0,0-.866.387,13.366,13.366,0,0,0-.185,1.444h1.1c.075.366.037.413-.3.413h-.748v2.809a.383.383,0,0,0,.382.414c.122.016.244.031.387.047.005.078.011.162.016.267h-2.188v-.256c.016-.011.027-.026.043-.026.536-.042.595-.1.595-.638V15.8c-.165,0-.319.005-.472-.005a.607.607,0,0,1-.176-.068c.021-.052.043-.1.064-.152C369.445,15.344,369.678,15.417,369.9,15.4Z" transform="translate(2712.215 4461.297)" fill="#040404"/>
      <path id="Path_100" data-name="Path 100" d="M388.508,16.591a1.546,1.546,0,0,0,.733,1.47,1.358,1.358,0,0,0,1.641-.262c.186.131.192.251.027.4a2.334,2.334,0,0,1-1.067.643,1.679,1.679,0,0,1-1.918-1.031,2.285,2.285,0,0,1,1.185-2.971,1.417,1.417,0,0,1,1.992,1.276c0,.225-.1.309-.314.324C390.044,16.487,389.294,16.539,388.508,16.591Zm.059-.466c.531,0,1.053.005,1.573-.005a.2.2,0,0,0,.142-.131.855.855,0,0,0-.409-.811.716.716,0,0,0-.813.063A1.336,1.336,0,0,0,388.566,16.126Z" transform="translate(2718.335 4461.875)" fill="#040404"/>
      <path id="Path_101" data-name="Path 101" d="M378.845,13.669V13.4h2.444v.272l-.335.047c-.371.058-.467.178-.473.565q-.008,2.025,0,4.049c0,.371.128.5.5.539.1.011.192.031.314.052.005.089.011.178.016.288h-2.454c-.005-.089-.011-.178-.016-.288.149-.021.276-.037.4-.052.224-.032.382-.131.4-.371.009-.121.031-.241.031-.361V14.4a1.386,1.386,0,0,0-.011-.209c-.057-.345-.116-.4-.462-.47C379.094,13.7,378.984,13.69,378.845,13.669Z" transform="translate(2715.388 4461.434)" fill="#040404"/>
      <path id="Path_102" data-name="Path 102" d="M390.781,17.515c.112-.026.19-.047.26-.068.154.262.287.523.458.759a.8.8,0,0,0,.679.34.625.625,0,0,0,.606-.382.541.541,0,0,0-.116-.643,1.789,1.789,0,0,0-.447-.314c-.208-.115-.425-.2-.632-.319a1.065,1.065,0,0,1-.627-1.109,1.143,1.143,0,0,1,.893-.983,1.935,1.935,0,0,1,1.142.021.337.337,0,0,1,.26.283c.048.246.1.492.149.748-.1.031-.174.063-.265.094-.08-.157-.144-.3-.229-.445a.813.813,0,0,0-.568-.424.581.581,0,0,0-.664.3.551.551,0,0,0,.149.706,4.748,4.748,0,0,0,.638.361c.185.1.387.173.558.288a1.093,1.093,0,0,1-.091,1.941,1.918,1.918,0,0,1-1.849-.011.373.373,0,0,1-.17-.23C390.854,18.127,390.824,17.824,390.781,17.515Z" transform="translate(2719.34 4461.872)" fill="#040404"/>
      <path id="Path_103" data-name="Path 103" d="M377.183,19.069v.277h-2.051V19.09c.021-.011.032-.026.048-.032.5-.047.579-.115.579-.607.011-1.413.005-2.825.005-4.237,0-.576-.037-.612-.627-.675V13.3c.451-.1.9-.2,1.371-.309v5.373C376.508,18.928,376.594,19.017,377.183,19.069Z" transform="translate(2714.161 4461.301)" fill="#040404"/>
      <path id="Path_104" data-name="Path 104" d="M386.707,18.815h-.288c-.4-.978-.8-1.946-1.2-2.914-.031-.073-.063-.141-.089-.214a.751.751,0,0,0-.744-.591v-.283h1.879v.241c-.025.016-.036.036-.052.036-.426.063-.446.089-.3.492.266.7.542,1.4.84,2.16.075-.183.132-.314.185-.444.2-.518.4-1.036.59-1.559.181-.508.149-.56-.377-.669v-.262H388.8v.282a.751.751,0,0,0-.748.555c-.426,1-.85,2.014-1.28,3.019C386.75,18.715,386.728,18.762,386.707,18.815Z" transform="translate(2717.225 4461.901)" fill="#040404"/>
      <path id="Path_105" data-name="Path 105" d="M367.594,15.483h-.7c.181-.345.213-.361.712-.382-.181-.539.17-.858.52-1.167.043-.037.117-.037.2-.063V15.1h1.025c.128.309.064.413-.229.413h-.791v1.23c0,.356-.005.716,0,1.072a1.4,1.4,0,0,0,.048.361.5.5,0,0,0,.711.4c.1-.026.2-.063.319-.1.032.073.064.146.106.246a6.325,6.325,0,0,1-.771.392.848.848,0,0,1-1.158-.873c-.016-.853-.005-1.705-.005-2.558A1.848,1.848,0,0,0,367.594,15.483Z" transform="translate(2711.435 4461.591)" fill="#040404"/>
      <path id="Path_106" data-name="Path 106" d="M395.8,18.462c.032.084.059.157.107.277a7.3,7.3,0,0,1-.978.413.83.83,0,0,1-.95-.894c-.011-.8-.005-1.6-.005-2.406v-.324c-.229-.016-.457-.037-.7-.052a.552.552,0,0,1,.717-.351,1.071,1.071,0,0,1,.648-1.261l.078.032v1.2h1.016c.128.3.064.408-.245.408h-.764v1.57c0,.288-.007.575,0,.863.016.544.345.774.86.6A1.654,1.654,0,0,0,395.8,18.462Z" transform="translate(2720.166 4461.589)" fill="#040404"/>
      <path id="Path_107" data-name="Path 107" d="M397.653,18.506v.267h-2.04v-.262a.379.379,0,0,1,.085-.026c.474-.042.552-.125.558-.6.005-.67.005-1.339.005-2.014,0-.413-.048-.455-.568-.565v-.23c.441-.115.872-.225,1.318-.345.005.063.011.131.011.194v2.846C397.016,18.38,397.043,18.412,397.653,18.506Z" transform="translate(2720.939 4461.875)" fill="#040404"/>
      <path id="Path_108" data-name="Path 108" d="M405.651,17.585a.555.555,0,1,1-1.11-.021.552.552,0,0,1,.552-.544A.544.544,0,0,1,405.651,17.585Z" transform="translate(2723.895 4462.633)" fill="#040404"/>
      <path id="Path_109" data-name="Path 109" d="M396.464,14.334a.487.487,0,0,1-.5-.465.5.5,0,1,1,.993-.011A.494.494,0,0,1,396.464,14.334Z" transform="translate(2721.056 4461.417)" fill="#040404"/>
    </g>
    <path id="Path_110" data-name="Path 110" d="M336.165,7.36a4.075,4.075,0,0,1,1.748.324,1.953,1.953,0,0,1,1.217,1.758,4.18,4.18,0,0,1-2.428,4.086,3.621,3.621,0,0,1-2.167.277.834.834,0,0,1-.749-.842,4.559,4.559,0,0,1,.181-1.1c.441-1.438.908-2.872,1.366-4.31.043-.136.089-.23.27-.2A3.348,3.348,0,0,0,336.165,7.36Z" transform="translate(2700.476 4459.431)" fill="#0b3b62"/>
    <path id="Path_111" data-name="Path 111" d="M335.219,8.067c.132-.429.249-.805.366-1.187.323-1.041.637-2.082.972-3.123.3-.942.685-1.182,1.684-1.093a1.853,1.853,0,0,1,1.573.858,2.1,2.1,0,0,1,.222,1.339,3.31,3.31,0,0,1-1.115,2.26,3.647,3.647,0,0,1-2.055.863C336.334,8.041,335.8,8.041,335.219,8.067Z" transform="translate(2700.95 4457.876)" fill="#0b3b62"/>
  </g>
</svg>
