<svg xmlns="http://www.w3.org/2000/svg" width="29.608" height="27.737" viewBox="0 0 29.608 27.737">
  <g id="Group_106" data-name="Group 106" transform="translate(-53.968 -3.856)">
    <path id="Path_139" data-name="Path 139" d="M75.008,15.976V35.25h3.855V26.77H85.8l-2.313-3.084H78.863V19.06h9.252V15.976Z" transform="translate(-17.179 -3.657)" fill="#159d4c"/>
    <path id="Path_140" data-name="Path 140" d="M91.248,31.373l-4.24-5.4h3.084l4.24,5.4-4.24,5.782H87.008Z" transform="translate(-19.927 -5.948)" fill="#159d4c"/>
    <path id="Path_141" data-name="Path 141" d="M95.592,31.373l4.241-5.4H96.748l-4.24,5.4,4.24,5.782h3.084Z" transform="translate(-21.187 -5.948)" fill="#159d4c"/>
    <path id="Path_142" data-name="Path 142" d="M72.617,11.178,70.861,6.122h-.033q.07,1.126.07,2.112v2.944H70V5.124h1.4l1.681,4.816H73.1l1.731-4.816h1.4v6.054H75.28V8.184q0-.451.021-1.176t.041-.878h-.033l-1.818,5.048Z" transform="translate(-16.032 -1.172)" fill="#898989"/>
    <path id="Path_143" data-name="Path 143" d="M83.67,11.17l-.6-1.681H80.75l-.592,1.681H79.115L81.38,5.091h1.077l2.265,6.079ZM82.8,8.636l-.567-1.648q-.062-.166-.174-.522t-.149-.522a9.283,9.283,0,0,1-.327,1.114L81.04,8.636Z" transform="translate(-18.119 -1.164)" fill="#898989"/>
    <path id="Path_144" data-name="Path 144" d="M89.911,5.86a1.631,1.631,0,0,0-1.342.6,2.584,2.584,0,0,0-.489,1.669,2.61,2.61,0,0,0,.468,1.685,1.666,1.666,0,0,0,1.362.571,3.667,3.667,0,0,0,.745-.075q.36-.079.75-.2v.849a4.545,4.545,0,0,1-1.615.269,2.585,2.585,0,0,1-2.042-.8,3.378,3.378,0,0,1-.712-2.307,3.743,3.743,0,0,1,.344-1.652,2.481,2.481,0,0,1,1-1.085,3.025,3.025,0,0,1,1.536-.377,3.812,3.812,0,0,1,1.714.389l-.356.824a5.05,5.05,0,0,0-.65-.253A2.276,2.276,0,0,0,89.911,5.86Z" transform="translate(-19.934 -1.146)" fill="#898989"/>
    <path id="Path_145" data-name="Path 145" d="M95.385,7.939h.687a1.569,1.569,0,0,0,1-.257.931.931,0,0,0,.311-.762.82.82,0,0,0-.335-.737,1.839,1.839,0,0,0-1.01-.224h-.654Zm0,.82v2.418H94.4V5.124h1.71a2.81,2.81,0,0,1,1.735.439A1.576,1.576,0,0,1,98.4,6.888,1.656,1.656,0,0,1,97.228,8.5l1.711,2.679H97.812L96.362,8.759Z" transform="translate(-21.619 -1.172)" fill="#898989"/>
    <path id="Path_146" data-name="Path 146" d="M106.718,8.114a3.305,3.305,0,0,1-.741,2.3,2.667,2.667,0,0,1-2.092.82,2.7,2.7,0,0,1-2.107-.812,3.346,3.346,0,0,1-.733-2.315,3.288,3.288,0,0,1,.737-2.3,2.73,2.73,0,0,1,2.112-.8,2.667,2.667,0,0,1,2.087.816A3.306,3.306,0,0,1,106.718,8.114Zm-4.621,0a2.72,2.72,0,0,0,.452,1.7,1.837,1.837,0,0,0,2.667,0,2.712,2.712,0,0,0,.451-1.7,2.715,2.715,0,0,0-.447-1.69,1.568,1.568,0,0,0-1.325-.576,1.612,1.612,0,0,0-1.345.576A2.694,2.694,0,0,0,102.1,8.114Z" transform="translate(-23.142 -1.144)" fill="#898989"/>
  </g>
</svg>
