<svg xmlns="http://www.w3.org/2000/svg" width="126" height="44.545" viewBox="0 0 126 44.545">
  <g id="Group_106" data-name="Group 106" transform="translate(-140 -40)">
    <text id="Avemfx" transform="translate(208 70)" fill="#ececec" font-size="20" font-family="RobotoCondensed-Regular, Roboto"><tspan x="0" y="0">Avemfx</tspan></text>
    <g id="Group_4" data-name="Group 4" transform="translate(-1452.049 -133)">
      <path id="Path_1" data-name="Path 1" d="M747.068-13.4a5.679,5.679,0,0,1,4.463-5.547c-.151.013-.288.013-.438.013a11.965,11.965,0,0,1-8.4-3.418c-.225-.225-.45-.45-.662-.688a26.311,26.311,0,0,0-8.55,8.939A35.863,35.863,0,0,1,741.868.914a35.021,35.021,0,0,1,1.212,7.474A25.956,25.956,0,0,0,747.1-.338a26.717,26.717,0,0,0,.775-6.373c0-2.579-.75-4.494-.812-6.51V-13.4Z" transform="translate(892.469 197.49)" fill="#9b8fff" fill-rule="evenodd"/>
      <path id="Path_2" data-name="Path 2" d="M741.868.914A35.863,35.863,0,0,0,733.481-14.1a35.748,35.748,0,0,0-26.2-11.393,33.464,33.464,0,0,0-3.75.2c-.675.063-1.338.15-2,.263a.815.815,0,0,0,.049.162h.675c.276,0,.563,0,.838.013A28.353,28.353,0,0,1,730.48.939a25.184,25.184,0,0,1,.126,2.591,28.314,28.314,0,0,1-4.613,15.525A25.986,25.986,0,0,0,743.08,8.388,35.021,35.021,0,0,0,741.868.914Z" transform="translate(891.469 198.49)" fill="#7261ff" fill-rule="evenodd"/>
      <path id="Path_3" data-name="Path 3" d="M730.48.939a28.353,28.353,0,0,0-27.387-25.791c-.275-.013-.562-.013-.838-.013h-.675c.113.426.238.852.375,1.265A35.907,35.907,0,0,0,730.48.939Z" transform="translate(890.469 199.49)" fill="#3b26e6" fill-rule="evenodd"/>
    </g>
  </g>
</svg>
