<?xml version="1.0" encoding="utf-8"?>
<!-- Generator: Adobe Illustrator 24.2.0, SVG Export Plug-In . SVG Version: 6.00 Build 0)  -->
<svg version="1.1" id="Layer_1" xmlns="http://www.w3.org/2000/svg" xmlns:xlink="http://www.w3.org/1999/xlink" x="0px" y="0px"
	 viewBox="0 0 126 44.5" style="enable-background:new 0 0 126 44.5;" xml:space="preserve">
<style type="text/css">
	.st0{enable-background:new    ;}
	.st1{fill:#ECECEC;}
	.st2{fill-rule:evenodd;clip-rule:evenodd;fill:#9B8FFF;}
	.st3{fill-rule:evenodd;clip-rule:evenodd;fill:#7261FF;}
	.st4{fill-rule:evenodd;clip-rule:evenodd;fill:#3B26E6;}
</style>
<g>
	<g class="st0">
		<path class="st1" d="M75.7,26.6h-4.5l-1,3.6h-2L72.5,16h1.9l4.3,14.2h-2L75.7,26.6z M71.6,25.1h3.6l-1.8-6.2h-0.1L71.6,25.1z"/>
		<path class="st1" d="M82.7,27.1l0.2,0.8h0.1l0.2-0.8l1.8-7.4h2l-3.2,10.6H82l-3.2-10.6h2.1L82.7,27.1z"/>
		<path class="st1" d="M92,30.4c-1.3,0-2.3-0.4-3-1.3c-0.8-0.9-1.1-2-1.1-3.3v-1.5c0-1.4,0.4-2.5,1.1-3.4c0.7-0.9,1.7-1.3,2.8-1.3
			c1.2,0,2.1,0.4,2.8,1.2s1,1.9,1,3.3v1.4h-5.7v0.4c0,0.9,0.2,1.7,0.6,2.3s1,0.9,1.7,0.9c0.5,0,1-0.1,1.4-0.3s0.8-0.4,1.1-0.8
			l0.6,1.2c-0.3,0.4-0.8,0.7-1.3,0.9C93.4,30.3,92.7,30.4,92,30.4z M91.8,21c-0.6,0-1,0.3-1.4,0.8c-0.3,0.6-0.5,1.3-0.6,2.1h3.7
			v-0.4c0-0.8-0.1-1.4-0.4-1.8C92.8,21.2,92.4,21,91.8,21z"/>
		<path class="st1" d="M99.1,19.7l0.1,1.4c0.3-0.5,0.7-0.9,1.1-1.2c0.4-0.3,1-0.4,1.6-0.4c0.6,0,1.1,0.2,1.5,0.5
			c0.4,0.3,0.7,0.8,0.9,1.5c0.3-0.6,0.6-1.1,1.1-1.4c0.5-0.3,1-0.5,1.6-0.5c0.9,0,1.6,0.4,2.1,1.1s0.8,1.9,0.8,3.4v6.3h-2V24
			c0-1.1-0.1-1.8-0.4-2.3c-0.3-0.4-0.7-0.7-1.2-0.7c-0.4,0-0.8,0.2-1.1,0.5s-0.5,0.8-0.7,1.4c0-0.1,0,0,0,0.2c0,0.2,0,0.4,0,0.5v6.6
			h-2V24c0-1-0.1-1.8-0.4-2.3S101.5,21,101,21c-0.4,0-0.8,0.1-1.1,0.3s-0.5,0.6-0.7,1v7.9h-2V19.7H99.1z"/>
		<path class="st1" d="M112.9,30.2v-9.2h-1.4v-1.4h1.4v-1.4c0-1.1,0.3-2,0.8-2.6c0.5-0.6,1.3-0.9,2.3-0.9c0.2,0,0.4,0,0.6,0.1
			c0.2,0,0.4,0.1,0.7,0.2l-0.2,1.5c-0.1,0-0.2-0.1-0.4-0.1s-0.3,0-0.4,0c-0.4,0-0.8,0.2-1,0.5s-0.3,0.8-0.3,1.5v1.4h1.8v1.4h-1.8
			v9.2H112.9z"/>
		<path class="st1" d="M121.4,23.5L121.4,23.5l1.7-3.9h2.3l-2.8,5.2l2.9,5.4h-2.3l-1.7-4h-0.1l-1.7,4h-2.3l2.9-5.4l-2.8-5.2h2.2
			L121.4,23.5z"/>
	</g>
	<g id="Group_4" transform="translate(-1452.049 -133)">
		<path id="Path_1" class="st2" d="M1499.4,144.3c0-2.7,1.9-5,4.5-5.5c-0.2,0-0.3,0-0.4,0c-3.1,0-6.2-1.2-8.4-3.4
			c-0.2-0.2-0.5-0.4-0.7-0.7c-3.5,2.3-6.5,5.3-8.6,8.9c4,4.3,6.9,9.4,8.4,15c0.7,2.4,1.1,4.9,1.2,7.5c1.9-2.6,3.2-5.6,4-8.7
			c0.5-2.1,0.8-4.2,0.8-6.4c0-2.6-0.8-4.5-0.8-6.5L1499.4,144.3L1499.4,144.3z"/>
		<path id="Path_2" class="st3" d="M1493.2,159.6c-1.5-5.6-4.4-10.8-8.4-15c-6.8-7.3-16.3-11.4-26.2-11.4c-1.3,0-2.5,0.1-3.8,0.2
			c-0.7,0.1-1.3,0.2-2,0.3c0,0.1,0,0.1,0,0.2h0.7c0.3,0,0.6,0,0.8,0c14.3,0.4,26.1,11.5,27.4,25.8c0.1,0.9,0.1,1.7,0.1,2.6
			c0,5.5-1.6,10.9-4.6,15.5c6.9-1.1,13.1-5,17.1-10.7C1494.3,164.6,1493.9,162.1,1493.2,159.6z"/>
		<path id="Path_3" class="st4" d="M1480.8,160.7c-1.3-14.3-13-25.4-27.4-25.8c-0.3,0-0.6,0-0.8,0h-0.7c0.1,0.4,0.2,0.9,0.4,1.3
			C1456.4,149,1467.4,158.5,1480.8,160.7z"/>
	</g>
</g>
</svg>
