<svg xmlns="http://www.w3.org/2000/svg" width="110.035" height="23.813" viewBox="0 0 110.035 23.813">
  <g id="Group_107" data-name="Group 107" transform="translate(-2755.041 -4458.331)">
    <path id="Path_62" data-name="Path 62" d="M168.235,1.472h-2.019V24.007h2.019Z" transform="translate(2645.014 4457.487)" fill="red"/>
    <path id="Path_63" data-name="Path 63" d="M187.088,1.472h6.441V3.349h-2.187V24.007h-2.031V3.349h-2.223Z" transform="translate(2651.922 4457.487)" fill="red"/>
    <path id="Path_64" data-name="Path 64" d="M166.606,1.472V24.007h-2.114l-3.024-13.688V24.007h-1.983V1.472h1.825L164.623,16.4V1.472Z" transform="translate(2642.786 4457.487)" fill="red"/>
    <path id="Path_65" data-name="Path 65" d="M134.489,1.472V24.007H132.5V4.691l-2.448,19.316h-1.65L126,4.691V24.007h-2V1.472h3.378l1.935,13.583,1.823-13.583Z" transform="translate(2631.041 4457.487)" fill="red"/>
    <path id="Path_66" data-name="Path 66" d="M156.1,23.558a13.1,13.1,0,0,0,2.5-7.722,12.836,12.836,0,1,0-25.669,0,13.117,13.117,0,0,0,2.493,7.722h2.67a11.012,11.012,0,0,1-3.134-7.722,10.81,10.81,0,1,1,21.616,0,11.028,11.028,0,0,1-3.13,7.722Z" transform="translate(2633.995 4457.927)" fill="red"/>
    <path id="Path_67" data-name="Path 67" d="M199.392,24.007h-1.974L196.9,18.93h-2.953l-.482,5.077h-2.014l2.277-22.535H196.8ZM196.712,16.9,195.369,4.469,194.13,16.9Z" transform="translate(2653.365 4457.487)" fill="red"/>
    <path id="Path_68" data-name="Path 68" d="M180.462,21.326c0,1.013-.588,1.532-1.26,1.532s-1.26-.519-1.26-1.532V4.318c0-1.015.588-1.534,1.26-1.534s1.26.52,1.26,1.534l0,.813V9.376h2.027V6.1l-.005-.946c-.013-2.806-1.1-4.143-3.35-4.143-2.008,0-3.315,1.447-3.315,3.667l0,.827V19.6l0,.913c0,2.886,1.1,4.293,3.363,4.293s3.307-1.383,3.307-4.353V12.264h-3.725v1.972h1.7v6.343Z" transform="translate(2648.191 4457.336)" fill="red"/>
    <path id="Path_69" data-name="Path 69" d="M186.7,20.792V14.935l-4.622-3.5V4.887c0-2.572,1.142-3.887,3.373-3.887,2.267,0,3.3,1.306,3.314,4.2l0,.9V9.414H186.7V4.961l-.005-.638c0-1.015-.583-1.534-1.248-1.534s-1.247.52-1.247,1.534v6.131l4.565,3.5v6.771c0,2.649-1.159,4.067-3.33,4.067-2.195,0-3.339-1.338-3.353-3.921l-.007-.892V15.574h2.12v5.758c0,1.013.584,1.532,1.248,1.532s1.248-.52,1.248-1.532Z" transform="translate(2650.264 4457.331)" fill="red"/>
    <path id="Path_70" data-name="Path 70" d="M160.328,24.006H158.3a7,7,0,0,1-.411-2.424l-.015-1.153-.009-.583v-4.4a1.182,1.182,0,0,0-1.193-1.342h-1.44v9.9h-1.98V1.472h2.583c2.9,0,4.022,1.078,4.022,3.96v4.23c0,1.9-.313,2.691-1.776,3.239.021.008.041.014.06.022,1.382.407,1.69.94,1.708,2.719l.007.815v4.116A9.919,9.919,0,0,0,160.328,24.006ZM155.236,3.245V12.17h.712a1.671,1.671,0,0,0,1.922-1.9V5.674c0-1.851-.423-2.43-1.772-2.43Zm64.39,20.761H217.6a6.939,6.939,0,0,1-.409-2.424l-.017-1.153-.007-.583v-4.4a1.182,1.182,0,0,0-1.193-1.342h-1.441v9.9h-1.982V1.472h2.585c2.9,0,4.02,1.078,4.02,3.96v4.23c0,1.9-.311,2.691-1.773,3.239l.061.022c1.38.407,1.69.94,1.7,2.719l.007.815v4.116A9.919,9.919,0,0,0,219.626,24.006ZM214.535,3.245V12.17h.711a1.671,1.671,0,0,0,1.923-1.9V5.674c0-1.851-.422-2.43-1.773-2.43Z" transform="translate(2640.724 4457.487)" fill="red"/>
    <path id="Path_71" data-name="Path 71" d="M176.216,1.472V24.007H174.1l-3.025-13.688V24.007H169.1V1.472h1.822L174.231,16.4V1.472Z" transform="translate(2645.967 4457.487)" fill="red"/>
    <path id="Path_72" data-name="Path 72" d="M203.672,3.429a2,2,0,1,0,2-2.028A2.013,2.013,0,0,0,203.672,3.429Zm.2,0a1.793,1.793,0,1,1,1.791,1.82A1.809,1.809,0,0,1,203.876,3.429Zm1.1-.99h.89c.31,0,.634.121.634.576a.517.517,0,0,1-.457.56l.542.865h-.315l-.531-.849h-.5V4.44h-.26v-2Zm.26.922h.59c.242,0,.417-.079.417-.346s-.173-.345-.417-.345h-.59Z" transform="translate(2657.411 4457.463)" fill="red"/>
  </g>
</svg>
