<svg xmlns="http://www.w3.org/2000/svg" width="112.036" height="26.126" viewBox="0 0 112.036 26.126">
  <g id="Group_109" data-name="Group 109" transform="translate(-2889.752 -4457)">
    <g id="Group_76" data-name="Group 76" transform="translate(2991.285 4467.132)">
      <path id="Path_74" data-name="Path 74" d="M309.429,21.24V17.207a14.8,14.8,0,0,1-1.921.112,9.555,9.555,0,0,1-2.955-.473A4.466,4.466,0,0,1,301.5,12.4a4.328,4.328,0,0,1,2.426-4.051,9.212,9.212,0,0,1,4.191-.741c.672,0,1.581.042,2.46.084L312,7.757V20.306Zm-1.5-12.005c-2.551,0-3.844,1.068-3.844,3.17,0,2.707,1.929,3.276,3.55,3.276a15.036,15.036,0,0,0,1.821-.1V9.293c-.768-.042-1.125-.059-1.528-.059Z" transform="translate(-301.496 -7.612)" fill="#313131"/>
    </g>
    <g id="Group_108" data-name="Group 108">
      <path id="Path_73" data-name="Path 73" d="M298.5,18.254c-3.849,0-6.241-1.83-6.241-4.779,0-3.061,2.207-4.965,5.762-4.965h.3a17.921,17.921,0,0,1,1.9.1V4.913h2.51V17.921A37.092,37.092,0,0,1,298.5,18.254Zm-.023-8.122c-2.432,0-3.615,1.077-3.615,3.292,0,1.988,1.428,3.224,3.72,3.224.441,0,.945-.024,1.633-.072V10.264A13.236,13.236,0,0,0,298.481,10.132Zm-34.368,7.824-6.781-9.711,0,9.711h-2.364V5.661h3.309l6.783,9.625,0-9.625h2.394V17.956Zm21.6.189a23.718,23.718,0,0,1-3.749-.329l-.153-.024V16.074l.224.039a19.9,19.9,0,0,0,3.41.406c.872,0,2.9-.112,2.9-1.166,0-.883-1.4-1.105-2.53-1.282l-.072-.012c-.21-.032-.41-.065-.576-.1-1.654-.352-3.419-.881-3.419-2.7,0-1.774,1.712-2.79,4.694-2.79a25.122,25.122,0,0,1,3.307.228l.406.049v1.667l-.217-.032a21.373,21.373,0,0,0-3.118-.289c-1.185,0-2.591.182-2.591,1.047,0,.718,1.151.923,2.484,1.161,1.863.331,4.173.746,4.173,2.832C290.889,17.047,289.006,18.145,285.716,18.145Zm24.064,0c-2.6,0-5.006-.376-5.006-3.1,0-2.963,3.721-2.963,5.947-2.963.221,0,1.267.04,1.588.051,0-1.662-.028-2.058-2.965-2.058a25.744,25.744,0,0,0-3.6.357l-.218.032V8.824l.148-.026a23.446,23.446,0,0,1,3.9-.328c2.847,0,5.259.235,5.259,3.133v6.32l-.173.016c-1.972.181-3.538.205-4.878.205Zm.878-4.6c-2.146,0-3.475.259-3.475,1.548,0,1.492,1.7,1.616,3.287,1.616.594,0,1.662-.063,1.988-.082V13.6C312,13.585,310.8,13.55,310.658,13.55Zm-36.108,4.6c-2.6,0-5.007-.376-5.007-3.1,0-2.963,3.721-2.963,5.946-2.963.221,0,1.27.04,1.59.051,0-1.662-.031-2.058-2.968-2.058a25.724,25.724,0,0,0-3.6.357l-.218.032V8.824l.15-.026a23.4,23.4,0,0,1,3.9-.328c2.846,0,5.259.235,5.259,3.133v6.32l-.174.016C277.455,18.121,275.889,18.145,274.55,18.145Zm.876-4.6c-2.146,0-3.473.259-3.473,1.548,0,1.492,1.694,1.616,3.285,1.616.6,0,1.665-.063,1.992-.082V13.6c-.463-.016-1.66-.051-1.8-.051" transform="translate(2674.388 4458.626)" fill="#313131"/>
      <g id="Group_77" data-name="Group 77" transform="translate(2904.609 4457)">
        <path id="Path_75" data-name="Path 75" d="M248.935,0,240.63,18.721a1.357,1.357,0,0,1-.518.583,1.8,1.8,0,0,1-.817.268v.009h8.779a1.6,1.6,0,0,0,1.495-.86L257.875,0Z" transform="translate(-235.407 0)" fill="#0996c7"/>
        <path id="Path_76" data-name="Path 76" d="M239.544,17.6a1.622,1.622,0,0,0,1.229-.522,1.3,1.3,0,0,0,.2-.3l3.047-6.87-1.782-4.012a1.312,1.312,0,0,0-.487-.512,1.712,1.712,0,0,0-.736-.238,1.8,1.8,0,0,0-.781.1,1.486,1.486,0,0,0-.612.412,1.32,1.32,0,0,0-.2.3l-3.047,6.868,1.79,4.028a1.334,1.334,0,0,0,.555.543A1.744,1.744,0,0,0,239.544,17.6Z" transform="translate(-236.374 1.699)" fill="#0996c7"/>
      </g>
      <g id="Group_78" data-name="Group 78" transform="translate(2889.752 4463.545)">
        <path id="Path_77" data-name="Path 77" d="M243.89,4.917h-8.875a1.6,1.6,0,0,0-1.5.861L225.212,24.5h8.941l8.305-18.72a1.362,1.362,0,0,1,.556-.608,1.821,1.821,0,0,1,.874-.251Z" transform="translate(-225.212 -4.917)" fill="#0996c7"/>
      </g>
    </g>
  </g>
</svg>
